# xmcd CD database file
#
# Track frame offsets:
#	150
#	12221
#	38298
#	45814
#	60843
#	82632
#	102906
#	109600
#	126457
#	136086
#	164167
#	193007
#	221132
#	245294
#	282547
#	294043
#	314214
#	322492
#
# Disc length: 4334 seconds
#
# Revision: 0
# Processed by: cddbd v1.5.2PL0 Copyright (c) Steve Scherf et al.
# Submitted via: CDex 1.70beta2
#
DISCID=fb10ec12
DTITLE=Slap Stick - Where We Belong To (1)
DYEAR=1999
DGENRE=Blues
TTITLE0=01 - Intro
TTITLE1=02 - I Got The Blues
TTITLE2=03 - Memphis Boogie
TTITLE3=04 - Heartbreakin' Blues
TTITLE4=05 - Reggae Reggae
TTITLE5=06 - Play That Funky Music (Hit Version)
TTITLE6=07 - New Orleans Bar Blues
TTITLE7=08 - Wild Green Piano
TTITLE8=09 - Walkin' On Thin Ice
TTITLE9=10 - Dead Duck
TTITLE10=11 - Neighbor Neighbor
TTITLE11=12 - Sweet Home Chicago
TTITLE12=13 - San Franciscan Nights
TTITLE13=12 - We've Gotta Get Out Of This Place
TTITLE14=15 - Bassoverloaded I
TTITLE15=16 - The Chicken
TTITLE16=17 - Bassoverloaded II
TTITLE17=18 - An Der Grenze Meiner Hand
EXTD=YEAR: 1999
EXTT0=
EXTT1=
EXTT2=
EXTT3=
EXTT4=
EXTT5=
EXTT6=
EXTT7=
EXTT8=
EXTT9=
EXTT10=
EXTT11=
EXTT12=
EXTT13=
EXTT14=
EXTT15=
EXTT16=
EXTT17=
PLAYORDER=
